#!OML:ASF E:\emotionWalksFemale\Project 1\Capture day 1\Session 1\Female1.ASF
:FULLY-SPECIFIED
:DEGREES
1739
root 7.84369 14.7547 -37.484 359.232 21.6498 8.93251
lowerback 9.98942 -2.37674 5.61555
upperback -0.86198 -2.20586 3.79414
thorax -6.59625 -1.19453 1.18419
lowerneck -0.568985 -2.62949 -2.64838
upperneck 16.7548 -2.4115 -6.43431
head 5.08571 -1.68944 -1.6675
rclavicle -2.71714e-014 3.81667e-014
rhumerus -25.9029 -13.4814 -64.1237
rradius 28.0363
rwrist 18.95
rhand 1.71947 -58.6311
rfingers 7.12502
rthumb 27.2363 993.315
lclavicle -2.71714e-014 3.81667e-014
lhumerus -26.0295 -10.2448 89.8364
lradius 54.2436
lwrist -1.25096
lhand -9.63171 -30.1651
lfingers 7.12502
lthumb 16.3383 -0.833331
rfemur -4.91628 7.71372 24.7144
rtibia 45.2138
rfoot -32.004 -31.1096
rtoes 5.55116
lfemur -35.0076 -13.5744 -23.9034
ltibia 74.1181
lfoot 0.880661 -11.6514
ltoes -23.458
1740
root 7.84354 14.6942 -37.4521 358.772 22.0058 8.65361
lowerback 10.0011 -2.38011 5.44082
upperback -0.872047 -2.22203 3.9077
thorax -6.60225 -1.19405 1.40471
lowerneck -0.305536 -2.7331 -2.68915
upperneck 16.6676 -2.55437 -6.52132
head 5.01075 -1.75969 -1.68841
rclavicle 2.92213e-014 -3.18055e-015
rhumerus -25.2812 -13.1424 -63.7184
rradius 27.8315
rwrist 19.7155
rhand 2.33638 -58.5587
rfingers 7.12502
rthumb 27.8262 993.482
lclavicle 2.92213e-014 -3.18055e-015
lhumerus -26.3861 -9.42608 89.4704
lradius 54.3047
lwrist -1.31935
lhand -9.02465 -29.9315
lfingers 7.12502
lthumb 16.9227 -0.648793
rfemur -4.58532 7.05419 25.1726
rtibia 45.6004
rfoot -31.9835 -31.9209
rtoes 6.09947
lfemur -35.4011 -13.6833 -23.7817
ltibia 74.8754
lfoot 0.23069 -11.9109
ltoes -24.4118
1741
root 7.85734 14.6364 -37.4362 358.683 21.6743 8.29364
lowerback 9.81554 -2.24653 5.78451
upperback -0.923955 -2.0149 3.92047
thorax -6.56119 -1.1048 1.18773
lowerneck -0.20226 -2.77033 -2.83862
upperneck 16.5595 -2.61794 -6.4534
head 4.96288 -1.79124 -1.64206
rclavicle -6.23687e-015 -1.59028e-014
rhumerus -23.6085 -14.6864 -63.249
rradius 25.9094
rwrist 23.428
rhand 1.8475 -58.5048
rfingers 7.12502
rthumb 27.3587 993.461
lclavicle -6.23687e-015 -1.59028e-014
lhumerus -26.5935 -8.34731 88.8345
lradius 54.1509
lwrist -1.47858
lhand -9.0859 -30.1975
lfingers 7.12502
lthumb 16.8638 -0.909754
rfemur -4.94945 6.79826 25.3631
rtibia 46.0948
rfoot -32.3712 -31.517
rtoes 8.24354
lfemur -36.3572 -13.2831 -23.5825
ltibia 75.5614
lfoot -0.571087 -11.889
ltoes -25.172
1742
root 7.85635 14.5743 -37.3949 358.071 22.0805 7.77824
lowerback 9.84142 -2.33147 5.78754
upperback -0.850134 -2.11201 4.15722
thorax -6.49155 -1.14501 1.44961
lowerneck -0.254758 -2.83311 -3.13233
upperneck 16.5918 -2.68907 -6.40559
head 4.98795 -1.84235 -1.58355
rclavicle -2.14439e-014 -3.81667e-014
rhumerus -22.7202 -14.797 -62.8462
rradius 25.7006
rwrist 24.3748
rhand 0.594612 -57.6368
rfingers 7.12502
rthumb 26.1598 994.146
lclavicle -2.14439e-014 -3.81667e-014
lhumerus -26.7279 -6.86986 88.3657
lradius 53.6942
lwrist -2.32286
lhand -9.28585 -31.1639
lfingers 7.12502
lthumb 16.6713 -1.8598
rfemur -4.50279 6.26483 26.0609
rtibia 46.5962
rfoot -33.1485 -31.6582
rtoes 8.20028
lfemur -36.6608 -13.4014 -23.276
ltibia 76.0935
lfoot -1.62487 -11.8156
ltoes -25.484
1743
root 7.85484 14.52 -37.3572 357.441 22.4385 7.38918
lowerback 9.85282 -2.37959 6.02949
upperback -0.708163 -2.15948 4.08055
thorax -6.36063 -1.17419 1.23653
lowerneck -0.305437 -2.95853 -3.12443
upperneck 16.678 -2.87354 -6.25605
head 5.02222 -1.92656 -1.54857
rclavicle -4.67144e-014 -2.54444e-014
rhumerus -22.1548 -14.9391 -62.7663
rradius 26.0987
rwrist 23.791
rhand -0.504913 -57.0496
rfingers 7.12502
rthumb 25.1067 994.581
lclavicle -4.67144e-014 -2.54444e-014
lhumerus -27.3042 -6.51729 87.6597
lradius 54.0214
lwrist -2.42826
lhand -9.80791 -31.3397
lfingers 7.12502
lthumb 16.1686 -1.99406
rfemur -3.98391 5.86428 26.6063
rtibia 47.1465
rfoot -34.608 -30.9602
rtoes 10.2181
lfemur -36.8011 -13.4463 -23.15
ltibia 76.4312
lfoot -2.8864 -11.3194
ltoes -28.3747
1744
root 7.85698 14.4702 -37.3211 356.999 22.7596 7.18373
lowerback 10.1276 -2.38687 6.12005
upperback -0.824656 -2.1312 3.97992
thorax -6.64781 -1.17046 1.09324
lowerneck -0.233129 -3.07775 -3.14023
upperneck 16.9092 -3.04633 -6.10329
head 5.08183 -2.00748 -1.50857
rclavicle -9.24349e-015 -6.36111e-015
rhumerus -21.8624 -15.0582 -62.4662
rradius 26.434
rwrist 23.392
rhand -0.55894 -57.8636
rfingers 7.12502
rthumb 25.0549 993.76
lclavicle -9.24349e-015 -6.36111e-015
lhumerus -27.9379 -5.84417 87.1041
lradius 53.9487
lwrist -2.61881
lhand -9.85716 -31.298
lfingers 7.12502
lthumb 16.1212 -1.94849
rfemur -3.61097 5.3392 26.866
rtibia 47.6152
rfoot -36.0051 -30.0223
rtoes 11.1965
lfemur -37.0015 -13.493 -23.2107
ltibia 76.6063
lfoot -4.0804 -10.7995
ltoes -31.394
1745
root 7.86189 14.4136 -37.2815 356.672 22.9569 6.94186
lowerback 10.0411 -2.33127 6.14653
upperback -0.824467 -2.06262 3.9756
thorax -6.59754 -1.13739 1.05881
lowerneck -0.173436 -3.2239 -3.25377
upperneck 16.9218 -3.25538 -6.0034
head 5.07712 -2.10989 -1.46716
rclavicle 1.68967e-014 -4.13472e-014
rhumerus -21.3486 -15.2073 -62.1103
rradius 26.7581
rwrist 24.0505
rhand 0.390535 -60.0634
rfingers 7.12502
rthumb 25.9644 991.69
lclavicle 1.68967e-014 -4.13472e-014
lhumerus -28.1525 -4.82396 86.5629
lradius 53.5589
lwrist -2.9584
lhand -9.85067 -31.3113
lfingers 7.12502
lthumb 16.1274 -1.96235
rfemur -3.46351 4.69207 27.17
rtibia 48.0479
rfoot -35.6076 -30.9465
rtoes 9.40791
lfemur -37.4196 -13.4498 -23.1724
ltibia 76.7281
lfoot -5.13817 -10.5732
ltoes -32.2883
1746
root 7.86781 14.361 -37.2424 356.283 23.0709 6.69214
lowerback 9.89747 -2.23449 5.89623
upperback -0.764576 -1.96809 4.17652
thorax -6.43278 -1.07568 1.38588
lowerneck 0.00767605 -3.40991 -3.38776
upperneck 16.8007 -3.48675 -6.21437
head 5.00529 -2.23713 -1.51502
rclavicle 4.1546e-014 4.13472e-014
rhumerus -20.6529 -15.0557 -61.6286
rradius 26.8091
rwrist 24.0411
rhand -0.99582 -59.2029
rfingers 7.12502
rthumb 24.6362 992.363
lclavicle 4.1546e-014 4.13472e-014
lhumerus -29.0109 -4.28757 86.3211
lradius 54.0007
lwrist -2.84381
lhand -11.2517 -30.9112
lfingers 7.12502
lthumb 14.778 -1.45804
rfemur -3.25383 4.14326 27.4805
rtibia 48.4665
rfoot -34.84 -31.9495
rtoes 9.1198
lfemur -37.7868 -13.3469 -23.1407
ltibia 76.7056
lfoot -5.98296 -10.2514
ltoes -32.3079
1747
root 7.87589 14.3154 -37.2061 355.829 23.1755 6.47003
lowerback 9.9698 -2.19715 5.92476
upperback -0.605321 -1.91594 4.21144
thorax -6.30296 -1.04657 1.39552
lowerneck -0.341826 -3.49073 -3.46932
upperneck 16.8515 -3.57314 -6.19689
head 5.08157 -2.29047 -1.50808
rclavicle 1.09332e-015 4.45278e-014
rhumerus -19.658 -15.5649 -61.3547
rradius 26.8588
rwrist 25.1144
rhand -0.831826 -60.5416
rfingers 7.12502
rthumb 24.7934 991.046
lclavicle 1.09332e-015 4.45278e-014
lhumerus -29.6278 -3.75222 85.8951
lradius 54.3304
lwrist -2.80772
lhand -11.1236 -30.5751
lfingers 7.12502
lthumb 14.9014 -1.13102
rfemur -2.94717 3.62084 27.6995
rtibia 48.9329
rfoot -35.0987 -31.8451
rtoes 9.62871
lfemur -37.9949 -13.3 -23.1923
ltibia 76.5105
lfoot -6.66999 -9.74793
ltoes -32.6783
1748
root 7.88442 14.271 -37.1694 355.487 23.2829 6.24093
lowerback 10.0725 -2.09303 5.97693
upperback -0.676307 -1.75789 4.19619
thorax -6.43563 -0.973782 1.33252
lowerneck -0.201295 -3.62325 -3.41526
upperneck 16.9445 -3.76695 -6.13451
head 5.0836 -2.37801 -1.50469
rclavicle -1.40143e-014 -6.36111e-015
rhumerus -19.1215 -15.9161 -61.0543
rradius 26.8557
rwrist 25.422
rhand -2.28741 -60.5647
rfingers 7.12502
rthumb 23.3977 990.838
lclavicle -1.40143e-014 -6.36111e-015
lhumerus -30.646 -3.41862 85.4685
lradius 54.5232
lwrist -2.83253
lhand -11.9577 -30.5859
lfingers 7.12502
lthumb 14.0977 -1.08417
rfemur -2.79582 3.15401 27.9364
rtibia 49.4964
rfoot -35.6509 -31.7045
rtoes 9.22197
lfemur -38.3022 -13.2634 -23.2132
ltibia 76.2241
lfoot -7.55773 -9.23043
ltoes -33.4888
